<?xml version="1.0" encoding="UTF-8"?>
<svg width="136px" height="32px" viewBox="0 0 136 32" version="1.1" xmlns="http://www.w3.org/2000/svg" xmlns:xlink="http://www.w3.org/1999/xlink">
    <!-- Generator: Sketch 55.1 (78136) - https://sketchapp.com -->
    <title>jadwal-logo</title>
    <desc>Created with Sketch.</desc>
    <defs>
        <linearGradient x1="17.2198702%" y1="63.1910432%" x2="78.0420449%" y2="22.5607987%" id="linearGradient-1">
            <stop stop-color="#16C79E" offset="0%"></stop>
            <stop stop-color="#FFFFFF" offset="100%"></stop>
        </linearGradient>
    </defs>
    <g id="Admin-/-Filled-Opened-Components" stroke="none" stroke-width="1" fill="none" fill-rule="evenodd">
        <g id="1--Dashboard" transform="translate(-15.000000, -20.000000)" fill-rule="nonzero">
            <g id="jadwal-logo" transform="translate(15.000000, 20.000000)">
                <ellipse id="Oval" fill="#16C79E" cx="20.8147126" cy="3.51632184" rx="3.65609195" ry="3.51632184"></ellipse>
                <ellipse id="Oval" fill="#16C79E" cx="12.3034483" cy="11.7811494" rx="3.65609195" ry="3.51632184"></ellipse>
                <ellipse id="Oval" fill="#16C79E" cx="3.65609195" cy="19.9503448" rx="3.65609195" ry="3.51632184"></ellipse>
                <ellipse id="Oval" fill="#16C79E" cx="12.1931034" cy="28.3954023" rx="3.65609195" ry="3.51632184"></ellipse>
                <ellipse id="Oval" fill="#16C79E" cx="20.8551724" cy="20.137931" rx="3.65609195" ry="3.51632184"></ellipse>
                <ellipse id="Oval" fill="#16C79E" cx="29.4510345" cy="11.8951724" rx="3.65609195" ry="3.51632184"></ellipse>
                <ellipse id="Oval" fill="#16C79E" cx="29.4510345" cy="28.343908" rx="3.65609195" ry="3.51632184"></ellipse>
                <ellipse id="Oval" fill="#16C79E" cx="38.0505747" cy="20.0790805" rx="3.65609195" ry="3.51632184"></ellipse>
                <path d="M9.46758621,30.7898851 L1.10344828,22.4956322 C0.405253214,21.8169027 0.0165557922,20.8811437 0.0281167384,19.9074855 C0.0402017771,18.9338273 0.451506815,18.0077826 1.16597701,17.3462069 L9.73609195,9.25425287 C11.2103559,7.88121176 13.5009087,7.90059585 14.9517241,9.2983908 C15.6336285,9.95714187 16.0147372,10.8672533 16.0056946,11.815338 C15.9966519,12.7634228 15.5982532,13.6660994 14.903908,14.3117241 L10.5710345,18.3908046 C10.1168524,18.8128717 9.8554759,19.4026248 9.84783052,20.0225954 C9.84018514,20.6425661 10.0869389,21.2385853 10.5305747,21.6717241 L10.5305747,21.6717241 C11.4859223,22.6034129 13.005895,22.6163902 13.9770115,21.7011494 L26.8505747,9.37931034 C28.3126455,7.99628173 30.600458,7.99628173 32.0625287,9.37931034 C32.7525756,10.0304356 33.1436857,10.9372259 33.1436857,11.885977 C33.1436857,12.8347282 32.7525756,13.7415184 32.0625287,14.3926437 L14.8708046,30.834023 C13.3483889,32.2682863 10.9663678,32.248828 9.46758621,30.7898851 Z" id="Path" fill="url(#linearGradient-1)" opacity="0.51"></path>
                <path d="M70.4110345,22.3411494 L70.4110345,17.6073563 C70.4143278,16.9814505 70.3110919,16.3595477 70.1057471,15.7682759 C69.906623,15.1957086 69.5867552,14.6726308 69.1678161,14.2344828 C68.7203679,13.7767288 68.1762046,13.424845 67.5751724,13.2045977 C66.8681754,12.9482474 66.1201974,12.8235844 65.3682759,12.8367816 C64.4581905,12.8306956 63.5545899,12.9902278 62.7016092,13.3075862 C62.2555926,13.4710895 61.8278394,13.6806516 61.4252874,13.9328736 C61.0896252,14.148546 60.8631246,14.4983488 60.8036782,14.8928736 C60.737922,15.2993738 60.8537975,15.7142582 61.1206738,16.0278555 C61.3875501,16.3414529 61.7785606,16.5221931 62.1903448,16.5222989 C62.4678747,16.5229881 62.7393271,16.4410402 62.9701149,16.2868966 C63.1826949,16.1459796 63.4066055,16.0229518 63.6395402,15.9190805 C64.1187287,15.7106126 64.6360547,15.6041411 65.1586207,15.6064368 C65.7358977,15.5750184 66.3066721,15.7410618 66.7770115,16.0772414 C67.1176483,16.3716688 67.3124963,16.8003344 67.3103448,17.2505747 C66.5747126,17.2505747 65.8133333,17.302069 65.074023,17.3645977 C64.2070294,17.4288025 63.3517304,17.6030759 62.5287356,17.8832184 C61.7819922,18.1280617 61.1081499,18.5553764 60.5682759,19.1264368 C60.0139203,19.763194 59.7266856,20.589323 59.7664368,21.4326437 C59.7484162,22.0748162 59.9034059,22.7100197 60.2151724,23.2717241 C60.4900529,23.7468959 60.8669223,24.1551711 61.3186207,24.4671264 C61.7560506,24.7636155 62.2431681,24.9791432 62.7567816,25.1034483 C63.2377513,25.2255673 63.7318214,25.2885612 64.228046,25.2910345 C65.0547537,25.3080675 65.8730594,25.1224333 66.6114943,24.7503448 C66.9482464,24.5692355 67.2619286,24.348176 67.5457471,24.091954 C67.7676011,24.6405723 68.2965607,25.0028734 68.8882759,25.0114943 L69.0096552,25.0114943 C69.4040633,25.0138146 69.7814755,24.8511139 70.0505747,24.5627586 C70.3212036,24.2796501 70.464665,23.8984147 70.4478161,23.5071264 L70.4478161,23.4666667 C70.422069,23.0731034 70.4110345,22.6942529 70.4110345,22.3411494 Z M63.1209195,21.9108046 C63.0353862,21.7478234 62.9947626,21.5650171 63.0032184,21.3811494 C62.9865898,21.114054 63.0905171,20.8535608 63.2864368,20.6712644 C63.5635005,20.4338694 63.8903021,20.2616701 64.2427586,20.1673563 C64.7143971,20.0317737 65.1988293,19.9454881 65.6882759,19.9098851 C66.2473563,19.8657471 66.7917241,19.8436782 67.3066667,19.8436782 L67.3066667,19.8436782 L67.3066667,19.8951724 C67.3363902,20.6006138 67.0941259,21.2905404 66.6298851,21.8225287 C66.125053,22.3411021 65.4170126,22.610319 64.6951724,22.5581609 C64.4618484,22.5587125 64.2290253,22.5365389 64,22.491954 C63.8118866,22.4518882 63.6324911,22.3783858 63.4703448,22.2749425 C63.3253741,22.1845425 63.2052671,22.0593784 63.1209195,21.9108046 Z" id="Shape" fill="#24356D"></path>
                <path d="M112.150805,17.6073563 C112.154098,16.9814505 112.050862,16.3595477 111.845517,15.7682759 C111.646393,15.1957086 111.326525,14.6726308 110.907586,14.2344828 C110.458059,13.7775197 109.912895,13.4258006 109.311264,13.2045977 C108.604331,12.9480051 107.856308,12.8233346 107.104368,12.8367816 C106.195483,12.8307324 105.293095,12.9902706 104.441379,13.3075862 C103.995849,13.4710248 103.569182,13.6818918 103.168736,13.9365517 C102.833046,14.1528444 102.605576,14.5020772 102.543448,14.8965517 C102.481348,15.2992043 102.595217,15.7091317 102.856092,16.022069 C103.31594,16.5725855 104.116638,16.68833 104.713563,16.2905747 C104.924395,16.1488997 105.147151,16.0258306 105.37931,15.9227586 C105.858725,15.7150061 106.375899,15.6085659 106.898391,15.6101149 C107.475804,15.5775071 108.046965,15.7436632 108.516782,16.0809195 C108.85531,16.3734503 109.048843,16.7994932 109.046437,17.2468966 C108.310805,17.2468966 107.545747,17.2983908 106.810115,17.3609195 C105.940637,17.4245054 105.082827,17.5987866 104.257471,17.8795402 C103.515711,18.1244753 102.846027,18.5490296 102.308046,19.1154023 C101.759764,19.7564812 101.476905,20.5826911 101.517241,21.4252874 C101.498508,22.067995 101.654892,22.7037002 101.969655,23.2643678 C102.243636,23.7402017 102.620673,24.1486587 103.073103,24.4597701 C103.510102,24.7570364 103.997366,24.9726288 104.511264,25.096092 C104.99213,25.2187566 105.486268,25.2817592 105.982529,25.2836782 C106.809236,25.3007112 107.627542,25.115077 108.365977,24.7429885 C108.704437,24.5628187 109.019447,24.3416943 109.303908,24.0845977 C109.515177,24.634518 110.039029,25.0012139 110.628046,25.0114943 L110.749425,25.0114943 C111.143833,25.0138146 111.521246,24.8511139 111.790345,24.5627586 C112.068632,24.2652857 112.211133,23.8657493 112.183908,23.4593103 C112.161839,23.0657471 112.150805,22.6868966 112.150805,22.3337931 L112.150805,17.6073563 Z M104.86069,21.9108046 C104.773417,21.7484652 104.732685,21.5651725 104.742989,21.3811494 C104.724754,21.1137994 104.828948,20.8526403 105.026207,20.6712644 C105.302411,20.4346601 105.627833,20.2625256 105.978851,20.1673563 C106.451743,20.0317815 106.937394,19.9454983 107.428046,19.9098851 C107.983448,19.8657471 108.531494,19.8436782 109.042759,19.8436782 L109.042759,19.8436782 L109.042759,19.8951724 C109.071471,20.6011107 108.827869,21.2910985 108.362299,21.8225287 C107.858602,22.340513 107.15193,22.6097213 106.431264,22.5581609 C106.197932,22.5589006 105.96509,22.5367253 105.736092,22.491954 C105.546841,22.4518503 105.366245,22.3783661 105.202759,22.2749425 C105.06096,22.1830187 104.94358,22.0580658 104.86069,21.9108046 L104.86069,21.9108046 Z" id="Shape" fill="#24356D"></path>
                <path d="M82.1075862,6.66850575 C81.225962,6.66850575 80.5112644,7.38320338 80.5112644,8.26482759 L80.5112644,14.0064368 C80.2536089,13.7979523 79.9792782,13.6109646 79.6910345,13.4473563 C78.9023774,13.0166405 78.0147374,12.7998027 77.1163218,12.8183908 C76.2829834,12.8105383 75.456849,12.9732617 74.6887356,13.2965517 C73.96873,13.6041968 73.3210019,14.0589846 72.7871264,14.6317241 C72.2562468,15.2092258 71.8438569,15.8852952 71.5733333,16.6216092 C71.2887848,17.3940273 71.145507,18.2113338 71.1502263,19.0344828 C71.1464518,19.8599477 71.2896869,20.6795016 71.5733333,21.4547126 C71.8396259,22.1930682 72.246868,22.8726379 72.7724138,23.4556322 C73.3026436,24.0320091 73.9479819,24.4906378 74.6666667,24.8018391 C75.4479451,25.1384251 76.2914514,25.3063744 77.142069,25.2947126 C77.9934178,25.2945557 78.8335913,25.100863 79.5990805,24.7282759 C79.9927534,24.5358486 80.3568965,24.2881322 80.6804598,23.9926437 C80.9536538,24.6937771 81.6876013,25.1007828 82.427017,24.9611854 C83.1664327,24.821588 83.701469,24.1750056 83.700232,23.4225287 L83.700232,8.26482759 C83.6982177,7.38547224 82.9869346,6.67254647 82.1075862,6.66850575 Z M75.2367816,21.4216092 C74.9715717,21.1040373 74.7704646,20.7380473 74.6445977,20.343908 C74.3747905,19.499339 74.3747905,18.5916954 74.6445977,17.7471264 C74.7713041,17.3522345 74.9723033,16.9851925 75.2367816,16.6657471 C75.4947782,16.3548625 75.8173367,16.1038443 76.182069,15.9301149 C76.5993872,15.7439244 77.0530688,15.6534394 77.5098851,15.6652874 C77.9500546,15.6581882 78.386208,15.7499439 78.7862069,15.9337931 C79.1617228,16.1088717 79.497247,16.3592629 79.771954,16.6694253 C80.0535437,16.9938142 80.2718689,17.368086 80.4156322,17.7728736 C80.5709092,18.1893311 80.6494194,18.6304838 80.6473959,19.0749425 C80.6485401,19.5190022 80.5713407,19.9597859 80.4193103,20.3770115 C80.2731988,20.7718321 80.0549277,21.1360331 79.7756322,21.4510345 C79.498939,21.7606042 79.1623495,22.0108566 78.7862069,22.1866667 C77.5745392,22.7858104 76.1105225,22.4823873 75.2367816,21.4510345 L75.2367816,21.4216092 Z" id="Shape" fill="#24356D"></path>
                <path d="M101.454713,14.0616092 C101.158091,13.648371 100.679703,13.4043794 100.171034,13.4068966 C99.471623,13.409847 98.8563848,13.8697824 98.6556322,14.5397701 L96.8937931,20.502069 L95.0951724,14.8450575 C94.8242312,13.9863664 94.0277781,13.4025106 93.1273563,13.4025106 C92.2269345,13.4025106 91.4304815,13.9863664 91.1595402,14.8450575 L89.4197701,20.4174713 L87.6505747,14.5618391 C87.4438893,13.8786829 86.8157987,13.4102258 86.102069,13.4068966 C85.58346,13.4061373 85.0961969,13.6550834 84.7929021,14.0757591 C84.4896073,14.4964349 84.4073719,15.0373941 84.571954,15.5291954 L87.3526437,23.8712644 C87.6311166,24.7201319 88.4234041,25.2940509 89.3167816,25.2940509 C90.2101591,25.2940509 91.0024466,24.7201319 91.2809195,23.8712644 L93.12,18.2988506 L94.9590805,23.8749425 C95.2396088,24.7227548 96.0320391,25.295235 96.9250575,25.295235 C97.8180758,25.295235 98.6105062,24.7227548 98.8910345,23.8749425 L101.668046,15.496092 C101.835173,15.0117576 101.755548,14.4763492 101.454713,14.0616092 L101.454713,14.0616092 Z" id="Path" fill="#24356D"></path>
                <path d="M114.607816,6.7052831 C113.728223,6.7052831 113.015172,7.41833822 113.015172,8.29793103 L113.015172,23.4372414 C112.986927,24.025166 113.284505,24.5809315 113.789475,24.8833518 C114.294446,25.1857721 114.924865,25.1857721 115.429835,24.8833518 C115.934806,24.5809315 116.232384,24.025166 116.204138,23.4372414 L116.204138,8.29793103 C116.204139,7.87489761 116.035838,7.46924405 115.736364,7.17045947 C115.436889,6.87167488 115.030848,6.70431037 114.607816,6.7052831 Z" id="Path" fill="#24356D"></path>
                <path d="M57.4087356,6.62068966 C56.512297,6.6227178 55.7866644,7.34999589 55.7866667,8.24643678 L55.7866667,20.0349425 C55.7846433,21.0152656 54.990438,21.8094709 54.0101149,21.8114943 C53.9366555,21.8170193 53.8628848,21.8170193 53.7894253,21.8114943 C52.8699968,21.6705719 52.2005447,20.8653349 52.2298851,19.9356322 L52.2298851,19.0970115 C52.258382,18.4984066 51.9552503,17.9326648 51.4410725,17.624832 C50.9268947,17.3169991 50.2850594,17.3169991 49.7708815,17.624832 C49.2567037,17.9326648 48.9535721,18.4984066 48.982069,19.0970115 L48.982069,19.8841379 C48.9648488,22.5132651 50.9310251,24.7331415 53.5429885,25.0335632 C53.7011494,25.0335632 53.851954,25.0335632 54.0064368,25.0335632 C56.7718991,25.0335632 59.0182986,22.8003575 59.0344828,20.0349425 L59.0344828,8.24275862 C59.0324546,7.34632002 58.3051765,6.62068966 57.4087356,6.62068966 Z" id="Path" fill="#24356D"></path>
                <path d="M131.733333,17.6147126 C131.736627,16.9888069 131.633391,16.366904 131.428046,15.7756322 C131.228051,15.202389 130.908322,14.6782846 130.490115,14.2381609 C130.040825,13.7835448 129.497122,13.4332142 128.897471,13.211954 C128.190348,12.9560857 127.442459,12.8314377 126.690575,12.8441379 C125.782058,12.8386171 124.879982,12.9968543 124.027586,13.3112644 C123.582893,13.4781619 123.156455,13.6901483 122.754943,13.943908 C122.419253,14.1602007 122.191783,14.5094335 122.129655,14.903908 C122.065113,15.3108177 122.181935,15.7255885 122.449359,16.0389982 C122.716783,16.3524078 123.108003,16.5330418 123.52,16.5333333 C123.79753,16.5340226 124.068982,16.4520747 124.29977,16.297931 C124.51235,16.1570141 124.736261,16.0339863 124.969195,15.9301149 C125.447216,15.7220439 125.963259,15.6155787 126.484598,15.6174713 C127.062011,15.5848634 127.633172,15.7510196 128.102989,16.0882759 C128.441517,16.3808066 128.63505,16.8068495 128.632644,17.2542529 C127.897011,17.2542529 127.135632,17.3057471 126.396322,17.3682759 C125.526844,17.4318618 124.669034,17.606143 123.843678,17.8868966 C123.102699,18.1334799 122.433391,18.5577956 121.894253,19.1227586 C121.344208,19.7617943 121.058737,20.5866349 121.096092,21.4289655 C121.078071,22.071138 121.233061,22.7063416 121.544828,23.268046 C121.819708,23.7432178 122.196578,24.1514929 122.648276,24.4634483 C123.085274,24.7607146 123.572538,24.9763069 124.086437,25.0997701 C124.567351,25.2221789 125.061457,25.2851774 125.557701,25.2873563 C126.384455,25.3048393 127.202868,25.1191808 127.941149,24.7466667 C128.27961,24.5664969 128.59462,24.3453725 128.87908,24.0882759 C129.092855,24.6373268 129.617768,25.0022941 130.206897,25.0114943 L130.328276,25.0114943 C130.722684,25.0138146 131.100096,24.8511139 131.369195,24.5627586 C131.647483,24.2652857 131.789984,23.8657493 131.762759,23.4593103 C131.74069,23.0657471 131.729655,22.6868966 131.729655,22.3337931 L131.733333,17.6147126 Z M124.443218,21.9181609 C124.357685,21.7551797 124.317061,21.5723735 124.325517,21.3885057 C124.307283,21.1211558 124.411476,20.8599966 124.608736,20.6786207 C124.88494,20.4420165 125.210362,20.2698819 125.561379,20.1747126 C126.034272,20.0391378 126.519923,19.9528547 127.010575,19.9172414 C127.569655,19.8731034 128.114023,19.8510345 128.628966,19.8510345 L128.628966,19.8510345 L128.628966,19.9025287 C128.658689,20.6079702 128.416425,21.2978968 127.952184,21.8298851 C127.447352,22.3484584 126.739311,22.6176753 126.017471,22.5655172 C125.783931,22.5668096 125.550909,22.5433841 125.322299,22.4956322 C125.132772,22.4584053 124.951883,22.3860495 124.788966,22.2822989 C124.646653,22.1898362 124.528188,22.0650706 124.443218,21.9181609 L124.443218,21.9181609 Z" id="Shape" fill="#24356D"></path>
                <ellipse id="Oval" fill="#24356D" cx="118.624368" cy="23.2128736" rx="1.59632184" ry="1.5337931"></ellipse>
                <ellipse id="Oval" fill="#24356D" cx="134.322759" cy="10.4018391" rx="1.6" ry="1.53747126"></ellipse>
                <path d="M134.31908,13.417931 C133.438295,13.4199535 132.724781,14.1334678 132.722759,15.0142529 L132.722759,23.474023 C132.694513,24.0619476 132.992091,24.6177131 133.497061,24.9201334 C134.002032,25.2225537 134.632451,25.2225537 135.137421,24.9201334 C135.642392,24.6177131 135.93997,24.0619476 135.911724,23.474023 L135.911724,15.0142529 C135.909712,14.1348975 135.198429,13.4219718 134.31908,13.417931 Z" id="Path" fill="#24356D"></path>
            </g>
        </g>
    </g>
</svg>